<?xml version="1.0" encoding="utf-8"?>
<!-- Generator: Adobe Illustrator 17.1.0, SVG Export Plug-In . SVG Version: 6.00 Build 0)  -->
<!DOCTYPE svg PUBLIC "-//W3C//DTD SVG 1.1//EN" "http://www.w3.org/Graphics/SVG/1.1/DTD/svg11.dtd">
<svg version="1.1" id="Layer_1" xmlns="http://www.w3.org/2000/svg" xmlns:xlink="http://www.w3.org/1999/xlink" x="0px" y="0px"
	 viewBox="0 0 795.08 882.088" enable-background="new 0 0 795.08 882.088" xml:space="preserve">
<g>
	<path fill="#5DDBE8" d="M700.663,206.512L440.331,56.195c-11.953-6.891-27.961-10.693-45.111-10.693
		c-17.139,0-33.17,3.803-45.105,10.693L89.777,206.512C64.898,220.867,44.66,255.918,44.66,284.64V585.25
		c0,28.723,20.238,63.773,45.117,78.129l260.338,150.305c11.936,6.902,27.967,10.699,45.105,10.699
		c17.15,0,33.158-3.797,45.111-10.699l260.332-150.305c24.879-14.356,45.106-49.406,45.106-78.129V284.64
		C745.768,255.918,725.542,220.867,700.663,206.512z M726.819,574.703c0,28.488-20.08,63.281-44.766,77.531L439.979,791.992
		c-11.953,6.902-27.85,10.699-44.759,10.699c-16.91,0-32.807-3.797-44.76-10.699L108.386,652.234
		c-24.685-14.25-44.766-49.043-44.766-77.531V295.181c0-28.506,20.08-63.287,44.766-77.525L350.46,77.887
		c11.953-6.896,27.85-10.699,44.76-10.699c16.91,0,32.806,3.803,44.759,10.699l242.074,139.77
		c24.686,14.238,44.766,49.02,44.766,77.525V574.703z"/>
	<path fill="#5DDBE8" d="M437.167,82.773c-11.115-6.41-26.016-9.949-41.947-9.949c-15.943,0-30.832,3.539-41.941,9.949
		l-242.08,139.746c-23.127,13.359-41.941,45.949-41.941,72.662v279.522c0,26.707,18.814,59.297,41.941,72.644l242.08,139.77
		c11.109,6.41,25.998,9.949,41.941,9.949c15.931,0,30.832-3.539,41.947-9.949l242.074-139.77
		c23.133-13.348,41.941-45.938,41.941-72.644V295.181c0-26.713-18.809-59.303-41.941-72.662L437.167,82.773z"/>
	<path fill="#5DDBE8" d="M722.419,188.652L444.925,28.433c-27.34-15.773-72.07-15.773-99.398,0L68.021,188.652
		c-27.334,15.785-49.705,54.516-49.705,86.074v320.438c0,31.547,22.371,70.289,49.705,86.074l277.506,160.207
		c27.328,15.785,72.058,15.785,99.398,0l277.494-160.207c27.334-15.785,49.705-54.527,49.705-86.074V274.726
		C772.124,243.168,749.753,204.437,722.419,188.652z M751.839,585.25c0,30.656-21.609,68.062-48.152,83.391L443.354,818.933
		c-12.844,7.418-29.953,11.508-48.134,11.508c-18.193,0-35.291-4.09-48.147-11.508L86.742,668.64
		c-26.543-15.328-48.141-52.734-48.141-83.391V284.64c0-30.656,21.598-68.062,48.141-83.391L347.074,50.951
		c12.855-7.424,29.953-11.502,48.147-11.502c18.181,0,35.29,4.078,48.134,11.502L703.686,201.25
		c26.543,15.328,48.152,52.734,48.152,83.391V585.25z"/>
</g>
<g>
	<g>
		<path fill="#161515" d="M552.446,463.946v132.395H257.767V495.739h55.203V368.106h-55.203V267.501h147.101v100.605h-72.117
			v127.633h192.996v-31.793H552.446z"/>
	</g>
	<g>
		<path fill="#FFFFFF" d="M532.673,448.138V580.52H237.993V479.919h59.789V352.286h-59.789V251.681h147.106v100.605H312.97v127.633
			h204.515v-31.781H532.673z"/>
	</g>
</g>
</svg>
