<?xml version="1.0" encoding="utf-8"?>
<!-- Generator: Adobe Illustrator 17.1.0, SVG Export Plug-In . SVG Version: 6.00 Build 0)  -->
<!DOCTYPE svg PUBLIC "-//W3C//DTD SVG 1.1//EN" "http://www.w3.org/Graphics/SVG/1.1/DTD/svg11.dtd">
<svg version="1.1" id="Layer_1" xmlns="http://www.w3.org/2000/svg" xmlns:xlink="http://www.w3.org/1999/xlink" x="0px" y="0px"
	 viewBox="680.163 175.765 887.705 967.763" enable-background="new 680.163 175.765 887.705 967.763" xml:space="preserve">
<g>
	<g>
		<g>
			<defs>
				<path id="SVGID_1_" d="M1469.434,402.57l-292.873-169.107c-13.447-7.752-31.457-12.029-50.752-12.029
					c-19.281,0-37.314,4.277-50.742,12.029L782.186,402.57c-27.988,16.148-50.756,55.58-50.756,87.895V828.65
					c0,32.312,22.768,71.744,50.756,87.895l292.881,169.092c13.428,7.766,31.461,12.039,50.742,12.039
					c19.295,0,37.305-4.273,50.752-12.039l292.873-169.092c27.988-16.15,50.742-55.582,50.742-87.895V490.465
					C1520.176,458.15,1497.422,418.719,1469.434,402.57z M1498.859,816.785c0,32.049-22.59,71.191-50.361,87.223l-272.334,157.227
					c-13.447,7.766-31.33,12.037-50.355,12.037c-19.023,0-36.906-4.271-50.354-12.037L803.121,904.008
					c-27.771-16.031-50.361-55.174-50.361-87.223V502.324c0-32.07,22.59-71.199,50.361-87.219l272.334-157.238
					c13.447-7.76,31.33-12.039,50.354-12.039c19.025,0,36.908,4.279,50.355,12.039l272.334,157.238
					c27.771,16.02,50.361,55.148,50.361,87.219L1498.859,816.785L1498.859,816.785z"/>
			</defs>
			<clipPath id="SVGID_2_">
				<use xlink:href="#SVGID_1_"  overflow="visible"/>
			</clipPath>
			<g clip-path="url(#SVGID_2_)">
				<g id="DPVcv1_2_">
					<g>
						<polygon fill="#F5B414" points="1552.922,273.051 1536.164,295.516 1580.803,690.441 1526.773,654.941 1526.719,650.672 
							1347.334,426.395 1343.604,425.117 1236.469,273.051 1236.469,271.324 1386.316,223.111 1347.492,419.965 1545.781,288.105 
							1533.688,295.516 						"/>
						<polygon fill="#EE9718" points="1528.504,654.941 1538.871,304.16 1641.99,571.998 1644.277,571.998 1656.371,613.469 
							1659.828,613.469 1656.193,674.992 1652.889,678.297 1633.91,798.363 1632.549,798.928 1630.453,825.229 1626.996,826.805 
							1625.203,849.227 1623.539,851.934 						"/>
						<polygon fill="#EE9718" points="1348.789,413.021 1386.316,223.111 1236.469,271.324 1174.201,162.67 1174.125,159.896 
							1163.895,140 1492.211,262.684 1489.992,265.984 1484.045,266.324 1483.342,268.902 1353.117,413.021 						"/>
						<polygon fill="#E6A11C" points="1163.895,140 1174.125,159.896 1174.201,162.67 1234.742,269.598 1013.557,164.188 
							1011.828,164.188 1011.838,163.406 1114.906,146.588 1115.51,145.182 						"/>
						<polygon fill="#E6A11C" points="1348.789,413.021 1353.117,413.021 1483.342,268.902 1484.045,266.324 1489.992,265.984 
							1492.211,262.684 1533.688,295.516 1533.012,298.641 1347.492,419.965 						"/>
						<polygon fill="#3B6963" points="998.004,1116.316 879.639,1081.76 766.453,967.711 768.674,966.066 1006.645,976.352 
							1056.703,1048.129 1059.715,1066.316 1037.027,1085.148 1033.328,1085.422 998.004,1111.822 						"/>
						<polygon fill="#567A52" points="1253.748,1126.688 1245.113,1128.412 1241.65,1125.652 1241.65,1130.141 1225.635,1133.676 
							1224.373,1135.32 1131.551,1157.717 1129.336,1156.062 1129.336,1150.875 1133.645,1150.875 1214.004,934.877 
							1216.559,934.93 1352.246,1042.012 1352.246,1048.086 1263.064,1120.105 1262.391,1123.229 1257.205,1124.957 
							1257.205,1121.652 1253.748,1121.652 						"/>
						<polygon fill="#4A7A68" points="1004.918,976.352 768.674,966.066 766.453,967.711 761.27,960.801 764.17,960.801 
							783.527,893.969 785.393,892.814 811.383,800.092 						"/>
						<polygon fill="#2C5E67" points="659.316,646.297 661.045,514.973 762.996,584.094 762.996,589.279 760.676,589.279 
							663.805,762.074 659.316,762.074 						"/>
						<polygon fill="#3B6963" points="659.316,762.074 663.805,762.074 760.676,589.279 762.996,589.279 780.641,664.777 
							781.195,665.391 785.461,689.5 736.846,776.398 745.721,781.961 745.719,784.539 661.045,765.533 						"/>
						<polygon fill="#3B6963" points="811.383,800.092 785.393,892.814 783.527,893.969 764.17,960.801 761.27,960.801 
							737.08,914.141 749.176,899.418 749.176,886.998 740.527,880.41 755.508,795.621 750.902,786.271 809.65,796.643 						"/>
						<polygon fill="#2C5E67" points="750.902,786.271 755.508,795.621 740.527,880.41 749.176,886.998 749.176,899.418 
							737.08,914.141 661.045,765.533 						"/>
						<polygon fill="#427268" points="1129.336,1150.875 1129.336,1156.062 998.629,1117.738 998.004,1111.822 1033.328,1085.422 
							1037.027,1085.148 1059.715,1066.316 1056.758,1050.65 						"/>
						<polygon fill="#D7A720" points="1528.504,654.941 1623.539,851.934 1621.814,855.387 1620.441,853.742 1359.158,905.781 
							1359.158,908.957 1355.701,908.957 1356.357,904.059 1526.773,654.941 						"/>
						<polygon fill="#878436" points="1355.701,908.957 1545.781,948.697 1410.996,1085.209 						"/>
						<polygon fill="#C19228" points="1545.781,948.697 1359.158,908.957 1359.158,905.781 1620.441,853.742 1621.814,855.387 
													"/>
						<polygon fill="#E0DCD4" points="1626.996,829.469 1626.996,826.805 1630.453,825.229 1630.453,822.559 1637.301,826.797 
													"/>
						<polygon fill="#6E9F66" points="773.363,309.34 775.094,305.883 902.965,203.934 904.691,200.48 911.604,197.023 
							915.061,197.023 904.691,235.039 901.629,235.039 898.59,245.809 823.479,330.08 						"/>
						<polygon fill="#E8E1E3" points="904.691,200.48 902.965,203.934 899.996,203.934 899.316,200.48 						"/>
						<polygon fill="#8BAF5C" points="1355.701,908.957 1410.996,1085.209 1409.27,1085.209 1216.559,934.93 1214.004,934.877 
							1214.004,933.152 1355.701,907.229 						"/>
						<polygon fill="#608E5B" points="1352.246,1042.012 1409.27,1085.209 1407.539,1088.672 1262.391,1123.229 1263.064,1120.105 
							1352.246,1048.086 						"/>
						<polygon fill="#AABB48" points="915.061,200.48 915.061,197.023 996.031,168.801 996.662,166.281 1013.557,164.188 
							1034.211,435.854 1032.562,437.213 1030.881,435.834 917.492,200.48 						"/>
						<polygon fill="#ECE7E8" points="913.336,197.023 911.604,197.023 912.764,195.59 						"/>
						<polygon fill="#608E5B" points="1253.748,1126.688 1253.748,1121.652 1257.205,1121.652 1257.205,1124.957 						"/>
						<polygon fill="#608E5B" points="1241.65,1130.141 1241.65,1125.652 1245.113,1128.412 						"/>
						<polygon fill="#427268" points="773.363,309.34 818.293,328.348 818.293,336.271 751.133,406.254 745.816,406.254 
							707.346,440.762 702.516,437.213 						"/>
						<polygon fill="#427268" points="762.996,584.094 661.045,514.973 661.125,510.105 745.152,447.672 747.969,447.672 
							866.678,359.453 						"/>
						<polygon fill="#4A7A68" points="866.678,359.453 747.969,447.672 745.152,447.672 662.771,508.061 702.516,437.213 
							707.346,440.762 745.816,406.254 751.133,406.254 818.293,336.271 818.293,328.348 823.479,330.08 824.865,331.762 
							870.135,352.539 868.406,357.723 866.678,354.271 						"/>
						<polygon fill="#E0DCD4" points="1630.453,810.463 1632.549,798.928 1633.91,798.363 1635.236,804.662 1633.004,810.463 						
							"/>
						<polygon fill="#E0DCD4" points="1661.559,622.111 1659.828,618.652 1664.316,618.652 						"/>
						<polygon fill="#E0DCD4" points="1659.828,613.469 1656.371,613.469 1656.371,610.014 1659.828,610.014 						"/>
						<polygon fill="#F2D118" points="1343.604,425.117 1347.334,426.395 1526.719,650.672 1526.773,653.209 1189.814,622.111 
							1190.479,618.947 						"/>
						<polygon fill="#C4BD2C" points="1032.562,437.213 1034.211,435.854 1013.557,164.188 1236.469,271.324 1236.469,273.051 
							1041.207,444.127 1036.023,444.127 1034.295,442.398 						"/>
						<polygon fill="#D5CD24" points="1410.996,642.848 1526.773,653.209 1526.773,654.941 1355.701,907.229 1352.246,907.229 
							1291.816,800.312 1291.762,798.295 1267.574,755.162 1277.529,758.77 1410.996,645.273 						"/>
						<polygon fill="#DCD526" points="1036.023,444.127 1041.207,444.127 1043.438,445.773 1197.117,433.566 1199.514,435.367 
							1340.506,423.314 1341.879,421.662 1343.604,425.117 1190.479,618.947 1189.814,622.111 1039.77,450.578 1036.023,449.312 
													"/>
						<polygon fill="#E5CC1D" points="1341.879,421.662 1340.506,423.314 1199.514,435.367 1197.117,433.566 1043.438,445.773 
							1041.207,444.127 1236.469,273.051 1341.191,416.805 						"/>
						<polygon fill="#608E5B" points="1129.336,1150.875 1056.758,1050.65 1056.703,1048.129 1006.645,976.352 1214.004,934.877 
							1133.645,1150.875 						"/>
						<polygon fill="#6E9F66" points="1004.918,976.352 930.615,905.5 1003.635,813.918 1006.645,813.918 1006.645,976.352 						
							"/>
						<polygon fill="#609069" points="1006.645,813.918 1003.635,813.918 930.615,905.5 811.383,800.092 799.281,741.342 
							802.738,739.02 803.271,720.865 871.859,663.09 871.859,654.941 958.943,713.777 961.846,713.777 1004.121,743.014 
							1006.645,743.07 						"/>
						<polygon fill="#609069" points="868.406,357.723 870.135,352.539 873.592,352.539 987.639,416.887 987.639,425.793 
							795.83,597.93 795.83,604.828 762.996,585.824 						"/>
						<polygon fill="#4A7A68" points="762.996,585.824 871.859,654.941 871.859,663.09 803.271,720.865 802.738,739.02 
							799.281,741.342 797.871,740.723 781.195,665.391 780.641,664.777 						"/>
						<polygon fill="#3B6963" points="785.461,689.5 797.871,740.723 799.281,741.342 809.65,796.643 745.719,784.539 
							745.721,781.961 736.846,776.398 						"/>
						<polygon fill="#8BAF5C" points="987.639,419.934 987.639,416.887 873.592,352.539 915.061,200.48 917.492,200.48 
							1030.881,435.834 1032.562,437.213 1034.295,442.398 1026.07,442.398 1025.264,439.52 						"/>
						<polygon fill="#75A960" points="904.691,235.039 873.592,352.539 870.135,352.539 824.865,331.762 823.479,330.08 
							898.59,245.809 901.629,235.039 						"/>
						<polygon fill="#75A960" points="1006.645,813.918 1006.645,746.523 1214.004,933.152 1214.004,934.877 1006.645,976.352 
													"/>
						<polygon fill="#B0CA48" points="1214.004,933.152 1188.164,628.654 1189.814,627.293 1192.834,627.293 1264.963,753.295 
							1267.574,755.162 1291.762,798.295 1291.816,800.312 1352.246,907.229 						"/>
						<polygon fill="#427268" points="868.406,357.723 866.678,359.453 866.678,354.271 						"/>
						<polygon fill="#DCD526" points="1267.574,755.162 1192.834,627.293 1189.814,627.293 1189.814,622.111 1410.996,642.848 
							1410.996,645.273 1277.529,758.77 						"/>
						<polygon fill="#6E9F66" points="987.639,419.934 1025.264,439.52 1026.07,442.398 1034.295,442.398 1036.023,444.127 
							1029.111,513.246 1025.615,513.246 1025.615,518.512 900.516,656.781 899.512,672.223 795.83,604.828 795.83,597.93 
							987.639,425.793 						"/>
						<polygon fill="#A7C354" points="1029.111,513.246 1036.023,449.312 1039.77,450.578 1189.814,622.111 1189.814,627.293 
							1188.164,628.654 1212.277,929.693 1006.645,746.523 						"/>
						<polygon fill="#75A960" points="1029.111,513.246 1006.645,743.07 1004.121,743.014 961.846,713.777 958.943,713.777 
							899.512,672.223 900.516,656.781 1025.615,518.512 1025.615,513.246 						"/>
					</g>
				</g>
				<g id="DPVcv1_1_">
					<g>
						<polygon fill="#F5B414" points="1542.125,276.652 1525.361,299.115 1570.002,694.043 1515.973,658.539 1515.92,654.273 
							1336.535,429.996 1332.805,428.717 1225.668,276.652 1225.668,274.926 1375.518,226.713 1336.695,423.566 1534.98,291.701 
							1522.883,299.115 						"/>
						<polygon fill="#EE9718" points="1517.699,658.539 1528.068,307.758 1631.191,575.6 1633.479,575.6 1645.574,617.07 
							1649.027,617.07 1645.395,678.594 1642.09,681.898 1623.109,801.965 1621.746,802.527 1619.65,828.83 1616.195,830.406 
							1614.404,852.826 1612.738,855.533 						"/>
						<polygon fill="#EE9718" points="1337.99,416.623 1375.518,226.713 1225.668,274.926 1163.402,166.27 1163.322,163.498 
							1153.094,143.6 1481.414,266.283 1479.195,269.584 1473.242,269.922 1472.539,272.504 1342.32,416.623 						"/>
						<polygon fill="#E6A11C" points="1153.094,143.6 1163.322,163.498 1163.402,166.27 1223.941,273.199 1002.758,167.789 
							1001.027,167.789 1001.039,167.008 1104.105,150.189 1104.711,148.783 						"/>
						<polygon fill="#E6A11C" points="1337.99,416.623 1342.32,416.623 1472.539,272.504 1473.242,269.922 1479.195,269.584 
							1481.414,266.283 1522.883,299.115 1522.211,302.242 1336.695,423.566 						"/>
						<polygon fill="#3B6963" points="987.205,1119.918 868.838,1085.359 755.652,971.312 757.875,969.668 995.848,979.953 
							1045.9,1051.727 1048.916,1069.916 1026.229,1088.746 1022.523,1089.023 987.205,1115.424 						"/>
						<polygon fill="#567A52" points="1242.949,1130.289 1234.312,1132.012 1230.852,1129.254 1230.852,1133.738 1214.836,1137.277 
							1213.574,1138.922 1120.75,1161.316 1118.535,1159.664 1118.535,1154.477 1122.844,1154.477 1203.205,938.477 
							1205.758,938.531 1341.445,1045.609 1341.445,1051.686 1252.266,1123.705 1251.592,1126.83 1246.406,1128.559 
							1246.406,1125.254 1242.949,1125.254 						"/>
						<polygon fill="#4A7A68" points="994.117,979.953 757.875,969.668 755.652,971.312 750.469,964.398 753.369,964.398 
							772.73,897.566 774.594,896.414 800.582,803.693 						"/>
						<polygon fill="#2C5E67" points="648.516,649.898 650.246,518.574 752.197,587.695 752.197,592.879 749.879,592.879 
							653.004,765.676 648.516,765.676 						"/>
						<polygon fill="#3B6963" points="648.516,765.676 653.004,765.676 749.879,592.879 752.197,592.879 769.836,668.379 
							770.395,668.988 774.664,693.098 726.047,780 734.922,785.559 734.918,788.139 650.246,769.135 						"/>
						<polygon fill="#3B6963" points="800.582,803.693 774.594,896.414 772.73,897.566 753.369,964.398 750.469,964.398 
							726.279,917.74 738.371,903.016 738.371,890.6 729.727,884.01 744.709,799.223 740.102,789.871 798.852,800.242 						"/>
						<polygon fill="#2C5E67" points="740.102,789.871 744.709,799.223 729.727,884.01 738.371,890.6 738.371,903.016 
							726.279,917.74 650.246,769.135 						"/>
						<polygon fill="#427268" points="1118.535,1154.477 1118.535,1159.664 987.828,1121.336 987.205,1115.424 1022.523,1089.023 
							1026.229,1088.746 1048.916,1069.916 1045.957,1054.252 						"/>
						<polygon fill="#D7A720" points="1517.699,658.539 1612.738,855.533 1611.016,858.988 1609.645,857.344 1348.359,909.379 
							1348.359,912.559 1344.902,912.559 1345.557,907.656 1515.973,658.539 						"/>
						<polygon fill="#878436" points="1344.902,912.559 1534.98,952.299 1400.197,1088.811 						"/>
						<polygon fill="#C19228" points="1534.98,952.299 1348.359,912.559 1348.359,909.379 1609.645,857.344 1611.016,858.988 						
							"/>
						<polygon fill="#E0DCD4" points="1616.195,833.07 1616.195,830.406 1619.65,828.83 1619.65,826.158 1626.502,830.396 						"/>
						<polygon fill="#6E9F66" points="762.562,312.941 764.295,309.484 892.164,207.533 893.895,204.082 900.805,200.625 
							904.26,200.625 893.895,238.639 890.828,238.639 887.785,249.408 812.678,333.678 						"/>
						<polygon fill="#E8E1E3" points="893.895,204.082 892.164,207.533 889.191,207.533 888.518,204.082 						"/>
						<polygon fill="#8BAF5C" points="1344.902,912.559 1400.197,1088.811 1398.469,1088.811 1205.758,938.531 1203.205,938.477 
							1203.205,936.754 1344.902,910.828 						"/>
						<polygon fill="#608E5B" points="1341.445,1045.609 1398.469,1088.811 1396.74,1092.27 1251.592,1126.83 1252.266,1123.705 
							1341.445,1051.686 						"/>
						<polygon fill="#AABB48" points="904.26,204.082 904.26,200.625 985.23,172.398 985.863,169.883 1002.758,167.789 
							1023.414,439.455 1021.762,440.814 1020.078,439.434 906.695,204.082 						"/>
						<polygon fill="#ECE7E8" points="902.535,200.625 900.805,200.625 901.965,199.188 						"/>
						<polygon fill="#608E5B" points="1242.949,1130.289 1242.949,1125.254 1246.406,1125.254 1246.406,1128.559 						"/>
						<polygon fill="#608E5B" points="1230.852,1133.738 1230.852,1129.254 1234.312,1132.012 						"/>
						<polygon fill="#427268" points="762.562,312.941 807.492,331.949 807.492,339.871 740.334,409.855 735.016,409.855 
							696.547,444.361 691.717,440.814 						"/>
						<polygon fill="#427268" points="752.197,587.695 650.246,518.574 650.322,513.707 734.352,451.273 737.17,451.273 
							855.879,363.051 						"/>
						<polygon fill="#4A7A68" points="855.879,363.051 737.17,451.273 734.352,451.273 651.973,511.662 691.717,440.814 
							696.547,444.361 735.016,409.855 740.334,409.855 807.492,339.871 807.492,331.949 812.678,333.678 814.062,335.363 
							859.336,356.139 857.605,361.324 855.879,357.871 						"/>
						<polygon fill="#E0DCD4" points="1619.65,814.064 1621.746,802.527 1623.109,801.965 1624.436,808.264 1622.199,814.064 						
							"/>
						<polygon fill="#E0DCD4" points="1650.76,625.711 1649.027,622.252 1653.518,622.252 						"/>
						<polygon fill="#E0DCD4" points="1649.027,617.07 1645.574,617.07 1645.574,613.615 1649.027,613.615 						"/>
						<polygon fill="#F2D118" points="1332.805,428.717 1336.535,429.996 1515.92,654.273 1515.973,656.811 1179.014,625.711 
							1179.68,622.547 						"/>
						<polygon fill="#C4BD2C" points="1021.762,440.814 1023.414,439.455 1002.758,167.789 1225.668,274.926 1225.668,276.652 
							1030.406,447.723 1025.225,447.723 1023.492,446 						"/>
						<polygon fill="#D5CD24" points="1400.197,646.445 1515.973,656.811 1515.973,658.539 1344.902,910.828 1341.445,910.828 
							1281.018,803.91 1280.965,801.895 1256.773,758.764 1266.729,762.369 1400.197,648.871 						"/>
						<polygon fill="#DCD526" points="1025.225,447.723 1030.406,447.723 1032.639,449.375 1186.316,437.168 1188.715,438.969 
							1329.703,426.914 1331.078,425.26 1332.805,428.717 1179.68,622.547 1179.014,625.711 1028.969,454.176 1025.225,452.91 
													"/>
						<polygon fill="#E5CC1D" points="1331.078,425.26 1329.703,426.914 1188.715,438.969 1186.316,437.168 1032.639,449.375 
							1030.406,447.723 1225.668,276.652 1330.389,420.404 						"/>
						<polygon fill="#608E5B" points="1118.535,1154.477 1045.957,1054.252 1045.9,1051.727 995.848,979.953 1203.205,938.477 
							1122.844,1154.477 						"/>
						<polygon fill="#6E9F66" points="994.117,979.953 919.814,909.098 992.832,817.516 995.848,817.516 995.848,979.953 						"/>
						<polygon fill="#609069" points="995.848,817.516 992.832,817.516 919.814,909.098 800.582,803.693 788.484,744.941 
							791.941,742.621 792.471,724.467 861.062,666.688 861.062,658.539 948.145,717.379 951.047,717.379 993.322,746.615 
							995.848,746.668 						"/>
						<polygon fill="#609069" points="857.605,361.324 859.336,356.139 862.791,356.139 976.836,420.488 976.836,429.391 
							785.027,601.529 785.027,608.43 752.197,589.422 						"/>
						<polygon fill="#4A7A68" points="752.197,589.422 861.062,658.539 861.062,666.688 792.471,724.467 791.941,742.621 
							788.484,744.941 787.072,744.32 770.395,668.988 769.836,668.379 						"/>
						<polygon fill="#3B6963" points="774.664,693.098 787.072,744.32 788.484,744.941 798.852,800.242 734.918,788.139 
							734.922,785.559 726.047,780 						"/>
						<polygon fill="#8BAF5C" points="976.836,423.535 976.836,420.488 862.791,356.139 904.26,204.082 906.695,204.082 
							1020.078,439.434 1021.762,440.814 1023.492,446 1015.271,446 1014.465,443.119 						"/>
						<polygon fill="#75A960" points="893.895,238.639 862.791,356.139 859.336,356.139 814.062,335.363 812.678,333.678 
							887.785,249.408 890.828,238.639 						"/>
						<polygon fill="#75A960" points="995.848,817.516 995.848,750.121 1203.205,936.754 1203.205,938.477 995.848,979.953 						
							"/>
						<polygon fill="#B0CA48" points="1203.205,936.754 1177.365,632.254 1179.014,630.895 1182.035,630.895 1254.164,756.895 
							1256.773,758.764 1280.965,801.895 1281.018,803.91 1341.445,910.828 						"/>
						<polygon fill="#427268" points="857.605,361.324 855.879,363.051 855.879,357.871 						"/>
						<polygon fill="#DCD526" points="1256.773,758.764 1182.035,630.895 1179.014,630.895 1179.014,625.711 1400.197,646.445 
							1400.197,648.871 1266.729,762.369 						"/>
						<polygon fill="#6E9F66" points="976.836,423.535 1014.465,443.119 1015.271,446 1023.492,446 1025.225,447.723 
							1018.312,516.848 1014.816,516.848 1014.816,522.113 889.717,660.383 888.711,675.824 785.027,608.43 785.027,601.529 
							976.836,429.391 						"/>
						<polygon fill="#A7C354" points="1018.312,516.848 1025.225,452.91 1028.969,454.176 1179.014,625.711 1179.014,630.895 
							1177.365,632.254 1201.48,933.295 995.848,750.121 						"/>
						<polygon fill="#75A960" points="1018.312,516.848 995.848,746.668 993.322,746.615 951.047,717.379 948.145,717.379 
							888.711,675.824 889.717,660.383 1014.816,522.113 1014.816,516.848 						"/>
					</g>
				</g>
			</g>
		</g>
	</g>
	<g>
		<g>
			<defs>
				<path id="SVGID_3_" d="M1173,263.363c-12.504-7.211-29.268-11.193-47.191-11.193c-17.936,0-34.684,3.982-47.184,11.193
					l-272.34,157.215c-26.018,15.029-47.184,51.693-47.184,81.746v314.461c0,30.045,21.166,66.709,47.184,81.725l272.34,157.24
					c12.5,7.211,29.248,11.193,47.184,11.193c17.924,0,34.688-3.982,47.191-11.193l272.334-157.24
					c26.023-15.016,47.186-51.68,47.186-81.725V502.324c0-30.053-21.162-66.717-47.186-81.746L1173,263.363z"/>
			</defs>
			<clipPath id="SVGID_4_">
				<use xlink:href="#SVGID_3_"  overflow="visible"/>
			</clipPath>
			<g clip-path="url(#SVGID_4_)">
				<g id="DPVcv1_4_">
					<g>
						<polygon fill="#F5B414" points="1552.922,273.051 1536.164,295.516 1580.803,690.441 1526.773,654.941 1526.719,650.672 
							1347.334,426.395 1343.604,425.117 1236.469,273.051 1236.469,271.324 1386.316,223.111 1347.492,419.965 1545.781,288.105 
							1533.688,295.516 						"/>
						<polygon fill="#EE9718" points="1528.504,654.941 1538.871,304.16 1641.99,571.998 1644.277,571.998 1656.371,613.469 
							1659.828,613.469 1656.193,674.992 1652.889,678.297 1633.91,798.363 1632.549,798.928 1630.453,825.229 1626.996,826.805 
							1625.203,849.227 1623.539,851.934 						"/>
						<polygon fill="#EE9718" points="1348.789,413.021 1386.316,223.111 1236.469,271.324 1174.201,162.67 1174.125,159.896 
							1163.895,140 1492.211,262.684 1489.992,265.984 1484.045,266.324 1483.342,268.902 1353.117,413.021 						"/>
						<polygon fill="#E6A11C" points="1163.895,140 1174.125,159.896 1174.201,162.67 1234.742,269.598 1013.557,164.188 
							1011.828,164.188 1011.838,163.406 1114.906,146.588 1115.51,145.182 						"/>
						<polygon fill="#E6A11C" points="1348.789,413.021 1353.117,413.021 1483.342,268.902 1484.045,266.324 1489.992,265.984 
							1492.211,262.684 1533.688,295.516 1533.012,298.641 1347.492,419.965 						"/>
						<polygon fill="#3B6963" points="998.004,1116.316 879.639,1081.76 766.453,967.711 768.674,966.066 1006.645,976.352 
							1056.703,1048.129 1059.715,1066.316 1037.027,1085.148 1033.328,1085.422 998.004,1111.822 						"/>
						<polygon fill="#567A52" points="1253.748,1126.688 1245.113,1128.412 1241.65,1125.652 1241.65,1130.141 1225.635,1133.676 
							1224.373,1135.32 1131.551,1157.717 1129.336,1156.062 1129.336,1150.875 1133.645,1150.875 1214.004,934.877 
							1216.559,934.93 1352.246,1042.012 1352.246,1048.086 1263.064,1120.105 1262.391,1123.229 1257.205,1124.957 
							1257.205,1121.652 1253.748,1121.652 						"/>
						<polygon fill="#4A7A68" points="1004.918,976.352 768.674,966.066 766.453,967.711 761.27,960.801 764.17,960.801 
							783.527,893.969 785.393,892.814 811.383,800.092 						"/>
						<polygon fill="#2C5E67" points="659.316,646.297 661.045,514.973 762.996,584.094 762.996,589.279 760.676,589.279 
							663.805,762.074 659.316,762.074 						"/>
						<polygon fill="#3B6963" points="659.316,762.074 663.805,762.074 760.676,589.279 762.996,589.279 780.641,664.777 
							781.195,665.391 785.461,689.5 736.846,776.398 745.721,781.961 745.719,784.539 661.045,765.533 						"/>
						<polygon fill="#3B6963" points="811.383,800.092 785.393,892.814 783.527,893.969 764.17,960.801 761.27,960.801 
							737.08,914.141 749.176,899.418 749.176,886.998 740.527,880.41 755.508,795.621 750.902,786.271 809.65,796.643 						"/>
						<polygon fill="#2C5E67" points="750.902,786.271 755.508,795.621 740.527,880.41 749.176,886.998 749.176,899.418 
							737.08,914.141 661.045,765.533 						"/>
						<polygon fill="#427268" points="1129.336,1150.875 1129.336,1156.062 998.629,1117.738 998.004,1111.822 1033.328,1085.422 
							1037.027,1085.148 1059.715,1066.316 1056.758,1050.65 						"/>
						<polygon fill="#D7A720" points="1528.504,654.941 1623.539,851.934 1621.814,855.387 1620.441,853.742 1359.158,905.781 
							1359.158,908.957 1355.701,908.957 1356.357,904.059 1526.773,654.941 						"/>
						<polygon fill="#878436" points="1355.701,908.957 1545.781,948.697 1410.996,1085.209 						"/>
						<polygon fill="#C19228" points="1545.781,948.697 1359.158,908.957 1359.158,905.781 1620.441,853.742 1621.814,855.387 
													"/>
						<polygon fill="#E0DCD4" points="1626.996,829.469 1626.996,826.805 1630.453,825.229 1630.453,822.559 1637.301,826.797 
													"/>
						<polygon fill="#6E9F66" points="773.363,309.34 775.094,305.883 902.965,203.934 904.691,200.48 911.604,197.023 
							915.061,197.023 904.691,235.039 901.629,235.039 898.59,245.809 823.479,330.08 						"/>
						<polygon fill="#E8E1E3" points="904.691,200.48 902.965,203.934 899.996,203.934 899.316,200.48 						"/>
						<polygon fill="#8BAF5C" points="1355.701,908.957 1410.996,1085.209 1409.27,1085.209 1216.559,934.93 1214.004,934.877 
							1214.004,933.152 1355.701,907.229 						"/>
						<polygon fill="#608E5B" points="1352.246,1042.012 1409.27,1085.209 1407.539,1088.672 1262.391,1123.229 1263.064,1120.105 
							1352.246,1048.086 						"/>
						<polygon fill="#AABB48" points="915.061,200.48 915.061,197.023 996.031,168.801 996.662,166.281 1013.557,164.188 
							1034.211,435.854 1032.562,437.213 1030.881,435.834 917.492,200.48 						"/>
						<polygon fill="#ECE7E8" points="913.336,197.023 911.604,197.023 912.764,195.59 						"/>
						<polygon fill="#608E5B" points="1253.748,1126.688 1253.748,1121.652 1257.205,1121.652 1257.205,1124.957 						"/>
						<polygon fill="#608E5B" points="1241.65,1130.141 1241.65,1125.652 1245.113,1128.412 						"/>
						<polygon fill="#427268" points="773.363,309.34 818.293,328.348 818.293,336.271 751.133,406.254 745.816,406.254 
							707.346,440.762 702.516,437.213 						"/>
						<polygon fill="#427268" points="762.996,584.094 661.045,514.973 661.125,510.105 745.152,447.672 747.969,447.672 
							866.678,359.453 						"/>
						<polygon fill="#4A7A68" points="866.678,359.453 747.969,447.672 745.152,447.672 662.771,508.061 702.516,437.213 
							707.346,440.762 745.816,406.254 751.133,406.254 818.293,336.271 818.293,328.348 823.479,330.08 824.865,331.762 
							870.135,352.539 868.406,357.723 866.678,354.271 						"/>
						<polygon fill="#E0DCD4" points="1630.453,810.463 1632.549,798.928 1633.91,798.363 1635.236,804.662 1633.004,810.463 						
							"/>
						<polygon fill="#E0DCD4" points="1661.559,622.111 1659.828,618.652 1664.316,618.652 						"/>
						<polygon fill="#E0DCD4" points="1659.828,613.469 1656.371,613.469 1656.371,610.014 1659.828,610.014 						"/>
						<polygon fill="#F2D118" points="1343.604,425.117 1347.334,426.395 1526.719,650.672 1526.773,653.209 1189.814,622.111 
							1190.479,618.947 						"/>
						<polygon fill="#C4BD2C" points="1032.562,437.213 1034.211,435.854 1013.557,164.188 1236.469,271.324 1236.469,273.051 
							1041.207,444.127 1036.023,444.127 1034.295,442.398 						"/>
						<polygon fill="#D5CD24" points="1410.996,642.848 1526.773,653.209 1526.773,654.941 1355.701,907.229 1352.246,907.229 
							1291.816,800.312 1291.762,798.295 1267.574,755.162 1277.529,758.77 1410.996,645.273 						"/>
						<polygon fill="#DCD526" points="1036.023,444.127 1041.207,444.127 1043.438,445.773 1197.117,433.566 1199.514,435.367 
							1340.506,423.314 1341.879,421.662 1343.604,425.117 1190.479,618.947 1189.814,622.111 1039.77,450.578 1036.023,449.312 
													"/>
						<polygon fill="#E5CC1D" points="1341.879,421.662 1340.506,423.314 1199.514,435.367 1197.117,433.566 1043.438,445.773 
							1041.207,444.127 1236.469,273.051 1341.191,416.805 						"/>
						<polygon fill="#608E5B" points="1129.336,1150.875 1056.758,1050.65 1056.703,1048.129 1006.645,976.352 1214.004,934.877 
							1133.645,1150.875 						"/>
						<polygon fill="#6E9F66" points="1004.918,976.352 930.615,905.5 1003.635,813.918 1006.645,813.918 1006.645,976.352 						
							"/>
						<polygon fill="#609069" points="1006.645,813.918 1003.635,813.918 930.615,905.5 811.383,800.092 799.281,741.342 
							802.738,739.02 803.271,720.865 871.859,663.09 871.859,654.941 958.943,713.777 961.846,713.777 1004.121,743.014 
							1006.645,743.07 						"/>
						<polygon fill="#609069" points="868.406,357.723 870.135,352.539 873.592,352.539 987.639,416.887 987.639,425.793 
							795.83,597.93 795.83,604.828 762.996,585.824 						"/>
						<polygon fill="#4A7A68" points="762.996,585.824 871.859,654.941 871.859,663.09 803.271,720.865 802.738,739.02 
							799.281,741.342 797.871,740.723 781.195,665.391 780.641,664.777 						"/>
						<polygon fill="#3B6963" points="785.461,689.5 797.871,740.723 799.281,741.342 809.65,796.643 745.719,784.539 
							745.721,781.961 736.846,776.398 						"/>
						<polygon fill="#8BAF5C" points="987.639,419.934 987.639,416.887 873.592,352.539 915.061,200.48 917.492,200.48 
							1030.881,435.834 1032.562,437.213 1034.295,442.398 1026.07,442.398 1025.264,439.52 						"/>
						<polygon fill="#75A960" points="904.691,235.039 873.592,352.539 870.135,352.539 824.865,331.762 823.479,330.08 
							898.59,245.809 901.629,235.039 						"/>
						<polygon fill="#75A960" points="1006.645,813.918 1006.645,746.523 1214.004,933.152 1214.004,934.877 1006.645,976.352 
													"/>
						<polygon fill="#B0CA48" points="1214.004,933.152 1188.164,628.654 1189.814,627.293 1192.834,627.293 1264.963,753.295 
							1267.574,755.162 1291.762,798.295 1291.816,800.312 1352.246,907.229 						"/>
						<polygon fill="#427268" points="868.406,357.723 866.678,359.453 866.678,354.271 						"/>
						<polygon fill="#DCD526" points="1267.574,755.162 1192.834,627.293 1189.814,627.293 1189.814,622.111 1410.996,642.848 
							1410.996,645.273 1277.529,758.77 						"/>
						<polygon fill="#6E9F66" points="987.639,419.934 1025.264,439.52 1026.07,442.398 1034.295,442.398 1036.023,444.127 
							1029.111,513.246 1025.615,513.246 1025.615,518.512 900.516,656.781 899.512,672.223 795.83,604.828 795.83,597.93 
							987.639,425.793 						"/>
						<polygon fill="#A7C354" points="1029.111,513.246 1036.023,449.312 1039.77,450.578 1189.814,622.111 1189.814,627.293 
							1188.164,628.654 1212.277,929.693 1006.645,746.523 						"/>
						<polygon fill="#75A960" points="1029.111,513.246 1006.645,743.07 1004.121,743.014 961.846,713.777 958.943,713.777 
							899.512,672.223 900.516,656.781 1025.615,518.512 1025.615,513.246 						"/>
					</g>
				</g>
				<g id="DPVcv1_3_">
					<g>
						<polygon fill="#F5B414" points="1542.125,276.652 1525.361,299.115 1570.002,694.043 1515.973,658.539 1515.92,654.273 
							1336.535,429.996 1332.805,428.717 1225.668,276.652 1225.668,274.926 1375.518,226.713 1336.695,423.566 1534.98,291.701 
							1522.883,299.115 						"/>
						<polygon fill="#EE9718" points="1517.699,658.539 1528.068,307.758 1631.191,575.6 1633.479,575.6 1645.574,617.07 
							1649.027,617.07 1645.395,678.594 1642.09,681.898 1623.109,801.965 1621.746,802.527 1619.65,828.83 1616.195,830.406 
							1614.404,852.826 1612.738,855.533 						"/>
						<polygon fill="#EE9718" points="1337.99,416.623 1375.518,226.713 1225.668,274.926 1163.402,166.27 1163.322,163.498 
							1153.094,143.6 1481.414,266.283 1479.195,269.584 1473.242,269.922 1472.539,272.504 1342.32,416.623 						"/>
						<polygon fill="#E6A11C" points="1153.094,143.6 1163.322,163.498 1163.402,166.27 1223.941,273.199 1002.758,167.789 
							1001.027,167.789 1001.039,167.008 1104.105,150.189 1104.711,148.783 						"/>
						<polygon fill="#E6A11C" points="1337.99,416.623 1342.32,416.623 1472.539,272.504 1473.242,269.922 1479.195,269.584 
							1481.414,266.283 1522.883,299.115 1522.211,302.242 1336.695,423.566 						"/>
						<polygon fill="#3B6963" points="987.205,1119.918 868.838,1085.359 755.652,971.312 757.875,969.668 995.848,979.953 
							1045.9,1051.727 1048.916,1069.916 1026.229,1088.746 1022.523,1089.023 987.205,1115.424 						"/>
						<polygon fill="#567A52" points="1242.949,1130.289 1234.312,1132.012 1230.852,1129.254 1230.852,1133.738 1214.836,1137.277 
							1213.574,1138.922 1120.75,1161.316 1118.535,1159.664 1118.535,1154.477 1122.844,1154.477 1203.205,938.477 
							1205.758,938.531 1341.445,1045.609 1341.445,1051.686 1252.266,1123.705 1251.592,1126.83 1246.406,1128.559 
							1246.406,1125.254 1242.949,1125.254 						"/>
						<polygon fill="#4A7A68" points="994.117,979.953 757.875,969.668 755.652,971.312 750.469,964.398 753.369,964.398 
							772.73,897.566 774.594,896.414 800.582,803.693 						"/>
						<polygon fill="#2C5E67" points="648.516,649.898 650.246,518.574 752.197,587.695 752.197,592.879 749.879,592.879 
							653.004,765.676 648.516,765.676 						"/>
						<polygon fill="#3B6963" points="648.516,765.676 653.004,765.676 749.879,592.879 752.197,592.879 769.836,668.379 
							770.395,668.988 774.664,693.098 726.047,780 734.922,785.559 734.918,788.139 650.246,769.135 						"/>
						<polygon fill="#3B6963" points="800.582,803.693 774.594,896.414 772.73,897.566 753.369,964.398 750.469,964.398 
							726.279,917.74 738.371,903.016 738.371,890.6 729.727,884.01 744.709,799.223 740.102,789.871 798.852,800.242 						"/>
						<polygon fill="#2C5E67" points="740.102,789.871 744.709,799.223 729.727,884.01 738.371,890.6 738.371,903.016 
							726.279,917.74 650.246,769.135 						"/>
						<polygon fill="#427268" points="1118.535,1154.477 1118.535,1159.664 987.828,1121.336 987.205,1115.424 1022.523,1089.023 
							1026.229,1088.746 1048.916,1069.916 1045.957,1054.252 						"/>
						<polygon fill="#D7A720" points="1517.699,658.539 1612.738,855.533 1611.016,858.988 1609.645,857.344 1348.359,909.379 
							1348.359,912.559 1344.902,912.559 1345.557,907.656 1515.973,658.539 						"/>
						<polygon fill="#878436" points="1344.902,912.559 1534.98,952.299 1400.197,1088.811 						"/>
						<polygon fill="#C19228" points="1534.98,952.299 1348.359,912.559 1348.359,909.379 1609.645,857.344 1611.016,858.988 						
							"/>
						<polygon fill="#E0DCD4" points="1616.195,833.07 1616.195,830.406 1619.65,828.83 1619.65,826.158 1626.502,830.396 						"/>
						<polygon fill="#6E9F66" points="762.562,312.941 764.295,309.484 892.164,207.533 893.895,204.082 900.805,200.625 
							904.26,200.625 893.895,238.639 890.828,238.639 887.785,249.408 812.678,333.678 						"/>
						<polygon fill="#E8E1E3" points="893.895,204.082 892.164,207.533 889.191,207.533 888.518,204.082 						"/>
						<polygon fill="#8BAF5C" points="1344.902,912.559 1400.197,1088.811 1398.469,1088.811 1205.758,938.531 1203.205,938.477 
							1203.205,936.754 1344.902,910.828 						"/>
						<polygon fill="#608E5B" points="1341.445,1045.609 1398.469,1088.811 1396.74,1092.27 1251.592,1126.83 1252.266,1123.705 
							1341.445,1051.686 						"/>
						<polygon fill="#AABB48" points="904.26,204.082 904.26,200.625 985.23,172.398 985.863,169.883 1002.758,167.789 
							1023.414,439.455 1021.762,440.814 1020.078,439.434 906.695,204.082 						"/>
						<polygon fill="#ECE7E8" points="902.535,200.625 900.805,200.625 901.965,199.188 						"/>
						<polygon fill="#608E5B" points="1242.949,1130.289 1242.949,1125.254 1246.406,1125.254 1246.406,1128.559 						"/>
						<polygon fill="#608E5B" points="1230.852,1133.738 1230.852,1129.254 1234.312,1132.012 						"/>
						<polygon fill="#427268" points="762.562,312.941 807.492,331.949 807.492,339.871 740.334,409.855 735.016,409.855 
							696.547,444.361 691.717,440.814 						"/>
						<polygon fill="#427268" points="752.197,587.695 650.246,518.574 650.322,513.707 734.352,451.273 737.17,451.273 
							855.879,363.051 						"/>
						<polygon fill="#4A7A68" points="855.879,363.051 737.17,451.273 734.352,451.273 651.973,511.662 691.717,440.814 
							696.547,444.361 735.016,409.855 740.334,409.855 807.492,339.871 807.492,331.949 812.678,333.678 814.062,335.363 
							859.336,356.139 857.605,361.324 855.879,357.871 						"/>
						<polygon fill="#E0DCD4" points="1619.65,814.064 1621.746,802.527 1623.109,801.965 1624.436,808.264 1622.199,814.064 						
							"/>
						<polygon fill="#E0DCD4" points="1650.76,625.711 1649.027,622.252 1653.518,622.252 						"/>
						<polygon fill="#E0DCD4" points="1649.027,617.07 1645.574,617.07 1645.574,613.615 1649.027,613.615 						"/>
						<polygon fill="#F2D118" points="1332.805,428.717 1336.535,429.996 1515.92,654.273 1515.973,656.811 1179.014,625.711 
							1179.68,622.547 						"/>
						<polygon fill="#C4BD2C" points="1021.762,440.814 1023.414,439.455 1002.758,167.789 1225.668,274.926 1225.668,276.652 
							1030.406,447.723 1025.225,447.723 1023.492,446 						"/>
						<polygon fill="#D5CD24" points="1400.197,646.445 1515.973,656.811 1515.973,658.539 1344.902,910.828 1341.445,910.828 
							1281.018,803.91 1280.965,801.895 1256.773,758.764 1266.729,762.369 1400.197,648.871 						"/>
						<polygon fill="#DCD526" points="1025.225,447.723 1030.406,447.723 1032.639,449.375 1186.316,437.168 1188.715,438.969 
							1329.703,426.914 1331.078,425.26 1332.805,428.717 1179.68,622.547 1179.014,625.711 1028.969,454.176 1025.225,452.91 
													"/>
						<polygon fill="#E5CC1D" points="1331.078,425.26 1329.703,426.914 1188.715,438.969 1186.316,437.168 1032.639,449.375 
							1030.406,447.723 1225.668,276.652 1330.389,420.404 						"/>
						<polygon fill="#608E5B" points="1118.535,1154.477 1045.957,1054.252 1045.9,1051.727 995.848,979.953 1203.205,938.477 
							1122.844,1154.477 						"/>
						<polygon fill="#6E9F66" points="994.117,979.953 919.814,909.098 992.832,817.516 995.848,817.516 995.848,979.953 						"/>
						<polygon fill="#609069" points="995.848,817.516 992.832,817.516 919.814,909.098 800.582,803.693 788.484,744.941 
							791.941,742.621 792.471,724.467 861.062,666.688 861.062,658.539 948.145,717.379 951.047,717.379 993.322,746.615 
							995.848,746.668 						"/>
						<polygon fill="#609069" points="857.605,361.324 859.336,356.139 862.791,356.139 976.836,420.488 976.836,429.391 
							785.027,601.529 785.027,608.43 752.197,589.422 						"/>
						<polygon fill="#4A7A68" points="752.197,589.422 861.062,658.539 861.062,666.688 792.471,724.467 791.941,742.621 
							788.484,744.941 787.072,744.32 770.395,668.988 769.836,668.379 						"/>
						<polygon fill="#3B6963" points="774.664,693.098 787.072,744.32 788.484,744.941 798.852,800.242 734.918,788.139 
							734.922,785.559 726.047,780 						"/>
						<polygon fill="#8BAF5C" points="976.836,423.535 976.836,420.488 862.791,356.139 904.26,204.082 906.695,204.082 
							1020.078,439.434 1021.762,440.814 1023.492,446 1015.271,446 1014.465,443.119 						"/>
						<polygon fill="#75A960" points="893.895,238.639 862.791,356.139 859.336,356.139 814.062,335.363 812.678,333.678 
							887.785,249.408 890.828,238.639 						"/>
						<polygon fill="#75A960" points="995.848,817.516 995.848,750.121 1203.205,936.754 1203.205,938.477 995.848,979.953 						
							"/>
						<polygon fill="#B0CA48" points="1203.205,936.754 1177.365,632.254 1179.014,630.895 1182.035,630.895 1254.164,756.895 
							1256.773,758.764 1280.965,801.895 1281.018,803.91 1341.445,910.828 						"/>
						<polygon fill="#427268" points="857.605,361.324 855.879,363.051 855.879,357.871 						"/>
						<polygon fill="#DCD526" points="1256.773,758.764 1182.035,630.895 1179.014,630.895 1179.014,625.711 1400.197,646.445 
							1400.197,648.871 1266.729,762.369 						"/>
						<polygon fill="#6E9F66" points="976.836,423.535 1014.465,443.119 1015.271,446 1023.492,446 1025.225,447.723 
							1018.312,516.848 1014.816,516.848 1014.816,522.113 889.717,660.383 888.711,675.824 785.027,608.43 785.027,601.529 
							976.836,429.391 						"/>
						<polygon fill="#A7C354" points="1018.312,516.848 1025.225,452.91 1028.969,454.176 1179.014,625.711 1179.014,630.895 
							1177.365,632.254 1201.48,933.295 995.848,750.121 						"/>
						<polygon fill="#75A960" points="1018.312,516.848 995.848,746.668 993.322,746.615 951.047,717.379 948.145,717.379 
							888.711,675.824 889.717,660.383 1014.816,522.113 1014.816,516.848 						"/>
					</g>
				</g>
			</g>
		</g>
	</g>
	<g>
		<g>
			<defs>
				<path id="SVGID_5_" d="M1493.908,382.477l-312.18-180.244c-30.758-17.746-81.08-17.746-111.824,0L757.711,382.477
					c-30.75,17.76-55.918,61.332-55.918,96.834v360.494c0,35.488,25.168,79.074,55.918,96.832l312.193,180.232
					c30.744,17.76,81.066,17.76,111.824,0l312.18-180.232c30.75-17.758,55.918-61.344,55.918-96.832V479.311
					C1549.826,443.809,1524.658,400.236,1493.908,382.477z M1527.008,828.65c0,34.488-24.312,76.57-54.174,93.814l-292.873,169.08
					c-14.449,8.344-33.695,12.945-54.152,12.945c-20.467,0-39.701-4.602-54.164-12.945l-292.873-169.08
					c-29.861-17.244-54.158-59.326-54.158-93.814V490.465c0-34.488,24.297-76.57,54.158-93.816l292.873-169.084
					c14.463-8.354,33.697-12.939,54.164-12.939c20.457,0,39.703,4.586,54.152,12.939l292.873,169.084
					c29.861,17.246,54.174,59.328,54.174,93.816L1527.008,828.65L1527.008,828.65z"/>
			</defs>
			<clipPath id="SVGID_6_">
				<use xlink:href="#SVGID_5_"  overflow="visible"/>
			</clipPath>
			<g clip-path="url(#SVGID_6_)">
				<g id="DPVcv1_6_">
					<g>
						<polygon fill="#F5B414" points="1552.922,273.051 1536.164,295.516 1580.803,690.441 1526.773,654.941 1526.719,650.672 
							1347.334,426.395 1343.604,425.117 1236.469,273.051 1236.469,271.324 1386.316,223.111 1347.492,419.965 1545.781,288.105 
							1533.688,295.516 						"/>
						<polygon fill="#EE9718" points="1528.504,654.941 1538.871,304.16 1641.99,571.998 1644.277,571.998 1656.371,613.469 
							1659.828,613.469 1656.193,674.992 1652.889,678.297 1633.91,798.363 1632.549,798.928 1630.453,825.229 1626.996,826.805 
							1625.203,849.227 1623.539,851.934 						"/>
						<polygon fill="#EE9718" points="1348.789,413.021 1386.316,223.111 1236.469,271.324 1174.201,162.67 1174.125,159.896 
							1163.895,140 1492.211,262.684 1489.992,265.984 1484.045,266.324 1483.342,268.902 1353.117,413.021 						"/>
						<polygon fill="#E6A11C" points="1163.895,140 1174.125,159.896 1174.201,162.67 1234.742,269.598 1013.557,164.188 
							1011.828,164.188 1011.838,163.406 1114.906,146.588 1115.51,145.182 						"/>
						<polygon fill="#E6A11C" points="1348.789,413.021 1353.117,413.021 1483.342,268.902 1484.045,266.324 1489.992,265.984 
							1492.211,262.684 1533.688,295.516 1533.012,298.641 1347.492,419.965 						"/>
						<polygon fill="#3B6963" points="998.004,1116.316 879.639,1081.76 766.453,967.711 768.674,966.066 1006.645,976.352 
							1056.703,1048.129 1059.715,1066.316 1037.027,1085.148 1033.328,1085.422 998.004,1111.822 						"/>
						<polygon fill="#567A52" points="1253.748,1126.688 1245.113,1128.412 1241.65,1125.652 1241.65,1130.141 1225.635,1133.676 
							1224.373,1135.32 1131.551,1157.717 1129.336,1156.062 1129.336,1150.875 1133.645,1150.875 1214.004,934.877 
							1216.559,934.93 1352.246,1042.012 1352.246,1048.086 1263.064,1120.105 1262.391,1123.229 1257.205,1124.957 
							1257.205,1121.652 1253.748,1121.652 						"/>
						<polygon fill="#4A7A68" points="1004.918,976.352 768.674,966.066 766.453,967.711 761.27,960.801 764.17,960.801 
							783.527,893.969 785.393,892.814 811.383,800.092 						"/>
						<polygon fill="#2C5E67" points="659.316,646.297 661.045,514.973 762.996,584.094 762.996,589.279 760.676,589.279 
							663.805,762.074 659.316,762.074 						"/>
						<polygon fill="#3B6963" points="659.316,762.074 663.805,762.074 760.676,589.279 762.996,589.279 780.641,664.777 
							781.195,665.391 785.461,689.5 736.846,776.398 745.721,781.961 745.719,784.539 661.045,765.533 						"/>
						<polygon fill="#3B6963" points="811.383,800.092 785.393,892.814 783.527,893.969 764.17,960.801 761.27,960.801 
							737.08,914.141 749.176,899.418 749.176,886.998 740.527,880.41 755.508,795.621 750.902,786.271 809.65,796.643 						"/>
						<polygon fill="#2C5E67" points="750.902,786.271 755.508,795.621 740.527,880.41 749.176,886.998 749.176,899.418 
							737.08,914.141 661.045,765.533 						"/>
						<polygon fill="#427268" points="1129.336,1150.875 1129.336,1156.062 998.629,1117.738 998.004,1111.822 1033.328,1085.422 
							1037.027,1085.148 1059.715,1066.316 1056.758,1050.65 						"/>
						<polygon fill="#D7A720" points="1528.504,654.941 1623.539,851.934 1621.814,855.387 1620.441,853.742 1359.158,905.781 
							1359.158,908.957 1355.701,908.957 1356.357,904.059 1526.773,654.941 						"/>
						<polygon fill="#878436" points="1355.701,908.957 1545.781,948.697 1410.996,1085.209 						"/>
						<polygon fill="#C19228" points="1545.781,948.697 1359.158,908.957 1359.158,905.781 1620.441,853.742 1621.814,855.387 
													"/>
						<polygon fill="#E0DCD4" points="1626.996,829.469 1626.996,826.805 1630.453,825.229 1630.453,822.559 1637.301,826.797 
													"/>
						<polygon fill="#6E9F66" points="773.363,309.34 775.094,305.883 902.965,203.934 904.691,200.48 911.604,197.023 
							915.061,197.023 904.691,235.039 901.629,235.039 898.59,245.809 823.479,330.08 						"/>
						<polygon fill="#E8E1E3" points="904.691,200.48 902.965,203.934 899.996,203.934 899.316,200.48 						"/>
						<polygon fill="#8BAF5C" points="1355.701,908.957 1410.996,1085.209 1409.27,1085.209 1216.559,934.93 1214.004,934.877 
							1214.004,933.152 1355.701,907.229 						"/>
						<polygon fill="#608E5B" points="1352.246,1042.012 1409.27,1085.209 1407.539,1088.672 1262.391,1123.229 1263.064,1120.105 
							1352.246,1048.086 						"/>
						<polygon fill="#AABB48" points="915.061,200.48 915.061,197.023 996.031,168.801 996.662,166.281 1013.557,164.188 
							1034.211,435.854 1032.562,437.213 1030.881,435.834 917.492,200.48 						"/>
						<polygon fill="#ECE7E8" points="913.336,197.023 911.604,197.023 912.764,195.59 						"/>
						<polygon fill="#608E5B" points="1253.748,1126.688 1253.748,1121.652 1257.205,1121.652 1257.205,1124.957 						"/>
						<polygon fill="#608E5B" points="1241.65,1130.141 1241.65,1125.652 1245.113,1128.412 						"/>
						<polygon fill="#427268" points="773.363,309.34 818.293,328.348 818.293,336.271 751.133,406.254 745.816,406.254 
							707.346,440.762 702.516,437.213 						"/>
						<polygon fill="#427268" points="762.996,584.094 661.045,514.973 661.125,510.105 745.152,447.672 747.969,447.672 
							866.678,359.453 						"/>
						<polygon fill="#4A7A68" points="866.678,359.453 747.969,447.672 745.152,447.672 662.771,508.061 702.516,437.213 
							707.346,440.762 745.816,406.254 751.133,406.254 818.293,336.271 818.293,328.348 823.479,330.08 824.865,331.762 
							870.135,352.539 868.406,357.723 866.678,354.271 						"/>
						<polygon fill="#E0DCD4" points="1630.453,810.463 1632.549,798.928 1633.91,798.363 1635.236,804.662 1633.004,810.463 						
							"/>
						<polygon fill="#E0DCD4" points="1661.559,622.111 1659.828,618.652 1664.316,618.652 						"/>
						<polygon fill="#E0DCD4" points="1659.828,613.469 1656.371,613.469 1656.371,610.014 1659.828,610.014 						"/>
						<polygon fill="#F2D118" points="1343.604,425.117 1347.334,426.395 1526.719,650.672 1526.773,653.209 1189.814,622.111 
							1190.479,618.947 						"/>
						<polygon fill="#C4BD2C" points="1032.562,437.213 1034.211,435.854 1013.557,164.188 1236.469,271.324 1236.469,273.051 
							1041.207,444.127 1036.023,444.127 1034.295,442.398 						"/>
						<polygon fill="#D5CD24" points="1410.996,642.848 1526.773,653.209 1526.773,654.941 1355.701,907.229 1352.246,907.229 
							1291.816,800.312 1291.762,798.295 1267.574,755.162 1277.529,758.77 1410.996,645.273 						"/>
						<polygon fill="#DCD526" points="1036.023,444.127 1041.207,444.127 1043.438,445.773 1197.117,433.566 1199.514,435.367 
							1340.506,423.314 1341.879,421.662 1343.604,425.117 1190.479,618.947 1189.814,622.111 1039.77,450.578 1036.023,449.312 
													"/>
						<polygon fill="#E5CC1D" points="1341.879,421.662 1340.506,423.314 1199.514,435.367 1197.117,433.566 1043.438,445.773 
							1041.207,444.127 1236.469,273.051 1341.191,416.805 						"/>
						<polygon fill="#608E5B" points="1129.336,1150.875 1056.758,1050.65 1056.703,1048.129 1006.645,976.352 1214.004,934.877 
							1133.645,1150.875 						"/>
						<polygon fill="#6E9F66" points="1004.918,976.352 930.615,905.5 1003.635,813.918 1006.645,813.918 1006.645,976.352 						
							"/>
						<polygon fill="#609069" points="1006.645,813.918 1003.635,813.918 930.615,905.5 811.383,800.092 799.281,741.342 
							802.738,739.02 803.271,720.865 871.859,663.09 871.859,654.941 958.943,713.777 961.846,713.777 1004.121,743.014 
							1006.645,743.07 						"/>
						<polygon fill="#609069" points="868.406,357.723 870.135,352.539 873.592,352.539 987.639,416.887 987.639,425.793 
							795.83,597.93 795.83,604.828 762.996,585.824 						"/>
						<polygon fill="#4A7A68" points="762.996,585.824 871.859,654.941 871.859,663.09 803.271,720.865 802.738,739.02 
							799.281,741.342 797.871,740.723 781.195,665.391 780.641,664.777 						"/>
						<polygon fill="#3B6963" points="785.461,689.5 797.871,740.723 799.281,741.342 809.65,796.643 745.719,784.539 
							745.721,781.961 736.846,776.398 						"/>
						<polygon fill="#8BAF5C" points="987.639,419.934 987.639,416.887 873.592,352.539 915.061,200.48 917.492,200.48 
							1030.881,435.834 1032.562,437.213 1034.295,442.398 1026.07,442.398 1025.264,439.52 						"/>
						<polygon fill="#75A960" points="904.691,235.039 873.592,352.539 870.135,352.539 824.865,331.762 823.479,330.08 
							898.59,245.809 901.629,235.039 						"/>
						<polygon fill="#75A960" points="1006.645,813.918 1006.645,746.523 1214.004,933.152 1214.004,934.877 1006.645,976.352 
													"/>
						<polygon fill="#B0CA48" points="1214.004,933.152 1188.164,628.654 1189.814,627.293 1192.834,627.293 1264.963,753.295 
							1267.574,755.162 1291.762,798.295 1291.816,800.312 1352.246,907.229 						"/>
						<polygon fill="#427268" points="868.406,357.723 866.678,359.453 866.678,354.271 						"/>
						<polygon fill="#DCD526" points="1267.574,755.162 1192.834,627.293 1189.814,627.293 1189.814,622.111 1410.996,642.848 
							1410.996,645.273 1277.529,758.77 						"/>
						<polygon fill="#6E9F66" points="987.639,419.934 1025.264,439.52 1026.07,442.398 1034.295,442.398 1036.023,444.127 
							1029.111,513.246 1025.615,513.246 1025.615,518.512 900.516,656.781 899.512,672.223 795.83,604.828 795.83,597.93 
							987.639,425.793 						"/>
						<polygon fill="#A7C354" points="1029.111,513.246 1036.023,449.312 1039.77,450.578 1189.814,622.111 1189.814,627.293 
							1188.164,628.654 1212.277,929.693 1006.645,746.523 						"/>
						<polygon fill="#75A960" points="1029.111,513.246 1006.645,743.07 1004.121,743.014 961.846,713.777 958.943,713.777 
							899.512,672.223 900.516,656.781 1025.615,518.512 1025.615,513.246 						"/>
					</g>
				</g>
				<g id="DPVcv1_5_">
					<g>
						<polygon fill="#F5B414" points="1542.125,276.652 1525.361,299.115 1570.002,694.043 1515.973,658.539 1515.92,654.273 
							1336.535,429.996 1332.805,428.717 1225.668,276.652 1225.668,274.926 1375.518,226.713 1336.695,423.566 1534.98,291.701 
							1522.883,299.115 						"/>
						<polygon fill="#EE9718" points="1517.699,658.539 1528.068,307.758 1631.191,575.6 1633.479,575.6 1645.574,617.07 
							1649.027,617.07 1645.395,678.594 1642.09,681.898 1623.109,801.965 1621.746,802.527 1619.65,828.83 1616.195,830.406 
							1614.404,852.826 1612.738,855.533 						"/>
						<polygon fill="#EE9718" points="1337.99,416.623 1375.518,226.713 1225.668,274.926 1163.402,166.27 1163.322,163.498 
							1153.094,143.6 1481.414,266.283 1479.195,269.584 1473.242,269.922 1472.539,272.504 1342.32,416.623 						"/>
						<polygon fill="#E6A11C" points="1153.094,143.6 1163.322,163.498 1163.402,166.27 1223.941,273.199 1002.758,167.789 
							1001.027,167.789 1001.039,167.008 1104.105,150.189 1104.711,148.783 						"/>
						<polygon fill="#E6A11C" points="1337.99,416.623 1342.32,416.623 1472.539,272.504 1473.242,269.922 1479.195,269.584 
							1481.414,266.283 1522.883,299.115 1522.211,302.242 1336.695,423.566 						"/>
						<polygon fill="#3B6963" points="987.205,1119.918 868.838,1085.359 755.652,971.312 757.875,969.668 995.848,979.953 
							1045.9,1051.727 1048.916,1069.916 1026.229,1088.746 1022.523,1089.023 987.205,1115.424 						"/>
						<polygon fill="#567A52" points="1242.949,1130.289 1234.312,1132.012 1230.852,1129.254 1230.852,1133.738 1214.836,1137.277 
							1213.574,1138.922 1120.75,1161.316 1118.535,1159.664 1118.535,1154.477 1122.844,1154.477 1203.205,938.477 
							1205.758,938.531 1341.445,1045.609 1341.445,1051.686 1252.266,1123.705 1251.592,1126.83 1246.406,1128.559 
							1246.406,1125.254 1242.949,1125.254 						"/>
						<polygon fill="#4A7A68" points="994.117,979.953 757.875,969.668 755.652,971.312 750.469,964.398 753.369,964.398 
							772.73,897.566 774.594,896.414 800.582,803.693 						"/>
						<polygon fill="#2C5E67" points="648.516,649.898 650.246,518.574 752.197,587.695 752.197,592.879 749.879,592.879 
							653.004,765.676 648.516,765.676 						"/>
						<polygon fill="#3B6963" points="648.516,765.676 653.004,765.676 749.879,592.879 752.197,592.879 769.836,668.379 
							770.395,668.988 774.664,693.098 726.047,780 734.922,785.559 734.918,788.139 650.246,769.135 						"/>
						<polygon fill="#3B6963" points="800.582,803.693 774.594,896.414 772.73,897.566 753.369,964.398 750.469,964.398 
							726.279,917.74 738.371,903.016 738.371,890.6 729.727,884.01 744.709,799.223 740.102,789.871 798.852,800.242 						"/>
						<polygon fill="#2C5E67" points="740.102,789.871 744.709,799.223 729.727,884.01 738.371,890.6 738.371,903.016 
							726.279,917.74 650.246,769.135 						"/>
						<polygon fill="#427268" points="1118.535,1154.477 1118.535,1159.664 987.828,1121.336 987.205,1115.424 1022.523,1089.023 
							1026.229,1088.746 1048.916,1069.916 1045.957,1054.252 						"/>
						<polygon fill="#D7A720" points="1517.699,658.539 1612.738,855.533 1611.016,858.988 1609.645,857.344 1348.359,909.379 
							1348.359,912.559 1344.902,912.559 1345.557,907.656 1515.973,658.539 						"/>
						<polygon fill="#878436" points="1344.902,912.559 1534.98,952.299 1400.197,1088.811 						"/>
						<polygon fill="#C19228" points="1534.98,952.299 1348.359,912.559 1348.359,909.379 1609.645,857.344 1611.016,858.988 						
							"/>
						<polygon fill="#E0DCD4" points="1616.195,833.07 1616.195,830.406 1619.65,828.83 1619.65,826.158 1626.502,830.396 						"/>
						<polygon fill="#6E9F66" points="762.562,312.941 764.295,309.484 892.164,207.533 893.895,204.082 900.805,200.625 
							904.26,200.625 893.895,238.639 890.828,238.639 887.785,249.408 812.678,333.678 						"/>
						<polygon fill="#E8E1E3" points="893.895,204.082 892.164,207.533 889.191,207.533 888.518,204.082 						"/>
						<polygon fill="#8BAF5C" points="1344.902,912.559 1400.197,1088.811 1398.469,1088.811 1205.758,938.531 1203.205,938.477 
							1203.205,936.754 1344.902,910.828 						"/>
						<polygon fill="#608E5B" points="1341.445,1045.609 1398.469,1088.811 1396.74,1092.27 1251.592,1126.83 1252.266,1123.705 
							1341.445,1051.686 						"/>
						<polygon fill="#AABB48" points="904.26,204.082 904.26,200.625 985.23,172.398 985.863,169.883 1002.758,167.789 
							1023.414,439.455 1021.762,440.814 1020.078,439.434 906.695,204.082 						"/>
						<polygon fill="#ECE7E8" points="902.535,200.625 900.805,200.625 901.965,199.188 						"/>
						<polygon fill="#608E5B" points="1242.949,1130.289 1242.949,1125.254 1246.406,1125.254 1246.406,1128.559 						"/>
						<polygon fill="#608E5B" points="1230.852,1133.738 1230.852,1129.254 1234.312,1132.012 						"/>
						<polygon fill="#427268" points="762.562,312.941 807.492,331.949 807.492,339.871 740.334,409.855 735.016,409.855 
							696.547,444.361 691.717,440.814 						"/>
						<polygon fill="#427268" points="752.197,587.695 650.246,518.574 650.322,513.707 734.352,451.273 737.17,451.273 
							855.879,363.051 						"/>
						<polygon fill="#4A7A68" points="855.879,363.051 737.17,451.273 734.352,451.273 651.973,511.662 691.717,440.814 
							696.547,444.361 735.016,409.855 740.334,409.855 807.492,339.871 807.492,331.949 812.678,333.678 814.062,335.363 
							859.336,356.139 857.605,361.324 855.879,357.871 						"/>
						<polygon fill="#E0DCD4" points="1619.65,814.064 1621.746,802.527 1623.109,801.965 1624.436,808.264 1622.199,814.064 						
							"/>
						<polygon fill="#E0DCD4" points="1650.76,625.711 1649.027,622.252 1653.518,622.252 						"/>
						<polygon fill="#E0DCD4" points="1649.027,617.07 1645.574,617.07 1645.574,613.615 1649.027,613.615 						"/>
						<polygon fill="#F2D118" points="1332.805,428.717 1336.535,429.996 1515.92,654.273 1515.973,656.811 1179.014,625.711 
							1179.68,622.547 						"/>
						<polygon fill="#C4BD2C" points="1021.762,440.814 1023.414,439.455 1002.758,167.789 1225.668,274.926 1225.668,276.652 
							1030.406,447.723 1025.225,447.723 1023.492,446 						"/>
						<polygon fill="#D5CD24" points="1400.197,646.445 1515.973,656.811 1515.973,658.539 1344.902,910.828 1341.445,910.828 
							1281.018,803.91 1280.965,801.895 1256.773,758.764 1266.729,762.369 1400.197,648.871 						"/>
						<polygon fill="#DCD526" points="1025.225,447.723 1030.406,447.723 1032.639,449.375 1186.316,437.168 1188.715,438.969 
							1329.703,426.914 1331.078,425.26 1332.805,428.717 1179.68,622.547 1179.014,625.711 1028.969,454.176 1025.225,452.91 
													"/>
						<polygon fill="#E5CC1D" points="1331.078,425.26 1329.703,426.914 1188.715,438.969 1186.316,437.168 1032.639,449.375 
							1030.406,447.723 1225.668,276.652 1330.389,420.404 						"/>
						<polygon fill="#608E5B" points="1118.535,1154.477 1045.957,1054.252 1045.9,1051.727 995.848,979.953 1203.205,938.477 
							1122.844,1154.477 						"/>
						<polygon fill="#6E9F66" points="994.117,979.953 919.814,909.098 992.832,817.516 995.848,817.516 995.848,979.953 						"/>
						<polygon fill="#609069" points="995.848,817.516 992.832,817.516 919.814,909.098 800.582,803.693 788.484,744.941 
							791.941,742.621 792.471,724.467 861.062,666.688 861.062,658.539 948.145,717.379 951.047,717.379 993.322,746.615 
							995.848,746.668 						"/>
						<polygon fill="#609069" points="857.605,361.324 859.336,356.139 862.791,356.139 976.836,420.488 976.836,429.391 
							785.027,601.529 785.027,608.43 752.197,589.422 						"/>
						<polygon fill="#4A7A68" points="752.197,589.422 861.062,658.539 861.062,666.688 792.471,724.467 791.941,742.621 
							788.484,744.941 787.072,744.32 770.395,668.988 769.836,668.379 						"/>
						<polygon fill="#3B6963" points="774.664,693.098 787.072,744.32 788.484,744.941 798.852,800.242 734.918,788.139 
							734.922,785.559 726.047,780 						"/>
						<polygon fill="#8BAF5C" points="976.836,423.535 976.836,420.488 862.791,356.139 904.26,204.082 906.695,204.082 
							1020.078,439.434 1021.762,440.814 1023.492,446 1015.271,446 1014.465,443.119 						"/>
						<polygon fill="#75A960" points="893.895,238.639 862.791,356.139 859.336,356.139 814.062,335.363 812.678,333.678 
							887.785,249.408 890.828,238.639 						"/>
						<polygon fill="#75A960" points="995.848,817.516 995.848,750.121 1203.205,936.754 1203.205,938.477 995.848,979.953 						
							"/>
						<polygon fill="#B0CA48" points="1203.205,936.754 1177.365,632.254 1179.014,630.895 1182.035,630.895 1254.164,756.895 
							1256.773,758.764 1280.965,801.895 1281.018,803.91 1341.445,910.828 						"/>
						<polygon fill="#427268" points="857.605,361.324 855.879,363.051 855.879,357.871 						"/>
						<polygon fill="#DCD526" points="1256.773,758.764 1182.035,630.895 1179.014,630.895 1179.014,625.711 1400.197,646.445 
							1400.197,648.871 1266.729,762.369 						"/>
						<polygon fill="#6E9F66" points="976.836,423.535 1014.465,443.119 1015.271,446 1023.492,446 1025.225,447.723 
							1018.312,516.848 1014.816,516.848 1014.816,522.113 889.717,660.383 888.711,675.824 785.027,608.43 785.027,601.529 
							976.836,429.391 						"/>
						<polygon fill="#A7C354" points="1018.312,516.848 1025.225,452.91 1028.969,454.176 1179.014,625.711 1179.014,630.895 
							1177.365,632.254 1201.48,933.295 995.848,750.121 						"/>
						<polygon fill="#75A960" points="1018.312,516.848 995.848,746.668 993.322,746.615 951.047,717.379 948.145,717.379 
							888.711,675.824 889.717,660.383 1014.816,522.113 1014.816,516.848 						"/>
					</g>
				</g>
			</g>
		</g>
	</g>
</g>
</svg>
