<?xml version="1.0" encoding="utf-8"?>
<!-- Generator: Adobe Illustrator 17.1.0, SVG Export Plug-In . SVG Version: 6.00 Build 0)  -->
<!DOCTYPE svg PUBLIC "-//W3C//DTD SVG 1.1//EN" "http://www.w3.org/Graphics/SVG/1.1/DTD/svg11.dtd">
<svg version="1.1" id="Layer_1" xmlns="http://www.w3.org/2000/svg" xmlns:xlink="http://www.w3.org/1999/xlink" x="0px" y="0px"
	 viewBox="0 0 74 71.2" enable-background="new 0 0 74 71.2" xml:space="preserve">
<polygon points="52.4,34.4 38.4,34.4 38.4,20.4 35.4,20.4 35.4,34.4 21.4,34.4 21.4,37.4 35.4,37.4 35.4,51.4 38.4,51.4 38.4,37.4 
	52.4,37.4 "/>
<path d="M36.9,67.2c-17.2,0-31.2-14-31.2-31.2s14-31.3,31.2-31.3s31.2,14,31.2,31.3S54.1,67.2,36.9,67.2z M36.9,7.7
	C21.3,7.7,8.7,20.4,8.7,35.9s12.7,28.2,28.2,28.2s28.2-12.7,28.2-28.2S52.5,7.7,36.9,7.7z"/>
</svg>
